<?xml version="1.0" encoding="utf-8" standalone="no"?>
<!DOCTYPE svg PUBLIC "-//W3C//DTD SVG 1.1//EN"
  "http://www.w3.org/Graphics/SVG/1.1/DTD/svg11.dtd">
<svg xmlns:xlink="http://www.w3.org/1999/xlink" width="468pt" height="432pt" viewBox="0 0 468 432" xmlns="http://www.w3.org/2000/svg" version="1.1">
 <metadata>
  <rdf:RDF xmlns:dc="http://purl.org/dc/elements/1.1/" xmlns:cc="http://creativecommons.org/ns#" xmlns:rdf="http://www.w3.org/1999/02/22-rdf-syntax-ns#">
   <cc:Work>
    <dc:type rdf:resource="http://purl.org/dc/dcmitype/StillImage"/>
    <dc:date>2025-08-16T22:54:56.828761</dc:date>
    <dc:format>image/svg+xml</dc:format>
    <dc:creator>
     <cc:Agent>
      <dc:title>Matplotlib v3.5.3, https://matplotlib.org/</dc:title>
     </cc:Agent>
    </dc:creator>
   </cc:Work>
  </rdf:RDF>
 </metadata>
 <defs>
  <style type="text/css">*{stroke-linejoin: round; stroke-linecap: butt}</style>
 </defs>
 <g id="figure_1">
  <g id="patch_1">
   <path d="M 0 432 
L 468 432 
L 468 0 
L 0 0 
z
" style="fill: #ffffff"/>
  </g>
  <g id="axes_1">
   <g id="patch_2">
    <path d="M 62.12 378.52 
L 440.656364 378.52 
L 440.656364 15.12 
L 62.12 15.12 
z
" style="fill: #ffffff"/>
   </g>
   <g id="matplotlib.axis_1">
    <g id="xtick_1">
     <g id="line2d_1"/>
     <g id="line2d_2">
      <defs>
       <path id="m909384d6b8" d="M 0 0 
L 0 3.5 
" style="stroke: #000000; stroke-width: 0.8"/>
      </defs>
      <g>
       <use xlink:href="#m909384d6b8" x="79.326198" y="378.52" style="stroke: #000000; stroke-width: 0.8"/>
      </g>
     </g>
     <g id="text_1">
      <text style="font: 14px 'Arial'; text-anchor: middle" x="79.326198" y="396.157812" transform="rotate(-0, 79.326198, 396.157812)">1,000</text>
     </g>
    </g>
    <g id="xtick_2">
     <g id="line2d_3"/>
     <g id="line2d_4">
      <g>
       <use xlink:href="#m909384d6b8" x="199.592364" y="378.52" style="stroke: #000000; stroke-width: 0.8"/>
      </g>
     </g>
     <g id="text_2">
      <text style="font: 14px 'Arial'; text-anchor: middle" x="199.592364" y="396.157812" transform="rotate(-0, 199.592364, 396.157812)">5,000</text>
     </g>
    </g>
    <g id="xtick_3">
     <g id="line2d_5"/>
     <g id="line2d_6">
      <g>
       <use xlink:href="#m909384d6b8" x="303.184" y="378.52" style="stroke: #000000; stroke-width: 0.8"/>
      </g>
     </g>
     <g id="text_3">
      <text style="font: 14px 'Arial'; text-anchor: middle" x="303.184" y="396.157812" transform="rotate(-0, 303.184, 396.157812)">20,000</text>
     </g>
    </g>
    <g id="xtick_4">
     <g id="line2d_7"/>
     <g id="line2d_8">
      <g>
       <use xlink:href="#m909384d6b8" x="423.450165" y="378.52" style="stroke: #000000; stroke-width: 0.8"/>
      </g>
     </g>
     <g id="text_4">
      <text style="font: 14px 'Arial'; text-anchor: middle" x="423.450165" y="396.157812" transform="rotate(-0, 423.450165, 396.157812)">100,000</text>
     </g>
    </g>
    <g id="text_5">
     <text style="font: 14px 'Arial'; text-anchor: middle" x="251.388182" y="413.707188" transform="rotate(-0, 251.388182, 413.707188)">Training set size</text>
    </g>
   </g>
   <g id="matplotlib.axis_2">
    <g id="ytick_1">
     <g id="line2d_9"/>
     <g id="line2d_10">
      <defs>
       <path id="mad00be41fe" d="M 0 0 
L -3.5 0 
" style="stroke: #000000; stroke-width: 0.8"/>
      </defs>
      <g>
       <use xlink:href="#mad00be41fe" x="62.12" y="335.596467" style="stroke: #000000; stroke-width: 0.8"/>
      </g>
     </g>
     <g id="text_6">
      <text style="font: 14px 'Arial'; text-anchor: end" x="55.12" y="340.915374" transform="rotate(-0, 55.12, 340.915374)">0.3</text>
     </g>
    </g>
    <g id="ytick_2">
     <g id="line2d_11"/>
     <g id="line2d_12">
      <g>
       <use xlink:href="#mad00be41fe" x="62.12" y="291.001959" style="stroke: #000000; stroke-width: 0.8"/>
      </g>
     </g>
     <g id="text_7">
      <text style="font: 14px 'Arial'; text-anchor: end" x="55.12" y="296.320866" transform="rotate(-0, 55.12, 296.320866)">0.4</text>
     </g>
    </g>
    <g id="ytick_3">
     <g id="line2d_13"/>
     <g id="line2d_14">
      <g>
       <use xlink:href="#mad00be41fe" x="62.12" y="246.407452" style="stroke: #000000; stroke-width: 0.8"/>
      </g>
     </g>
     <g id="text_8">
      <text style="font: 14px 'Arial'; text-anchor: end" x="55.12" y="251.726358" transform="rotate(-0, 55.12, 251.726358)">0.5</text>
     </g>
    </g>
    <g id="ytick_4">
     <g id="line2d_15"/>
     <g id="line2d_16">
      <g>
       <use xlink:href="#mad00be41fe" x="62.12" y="201.812944" style="stroke: #000000; stroke-width: 0.8"/>
      </g>
     </g>
     <g id="text_9">
      <text style="font: 14px 'Arial'; text-anchor: end" x="55.12" y="207.13185" transform="rotate(-0, 55.12, 207.13185)">0.6</text>
     </g>
    </g>
    <g id="ytick_5">
     <g id="line2d_17"/>
     <g id="line2d_18">
      <g>
       <use xlink:href="#mad00be41fe" x="62.12" y="157.218436" style="stroke: #000000; stroke-width: 0.8"/>
      </g>
     </g>
     <g id="text_10">
      <text style="font: 14px 'Arial'; text-anchor: end" x="55.12" y="162.537342" transform="rotate(-0, 55.12, 162.537342)">0.7</text>
     </g>
    </g>
    <g id="ytick_6">
     <g id="line2d_19"/>
     <g id="line2d_20">
      <g>
       <use xlink:href="#mad00be41fe" x="62.12" y="112.623928" style="stroke: #000000; stroke-width: 0.8"/>
      </g>
     </g>
     <g id="text_11">
      <text style="font: 14px 'Arial'; text-anchor: end" x="55.12" y="117.942834" transform="rotate(-0, 55.12, 117.942834)">0.8</text>
     </g>
    </g>
    <g id="ytick_7">
     <g id="line2d_21"/>
     <g id="line2d_22">
      <g>
       <use xlink:href="#mad00be41fe" x="62.12" y="68.02942" style="stroke: #000000; stroke-width: 0.8"/>
      </g>
     </g>
     <g id="text_12">
      <text style="font: 14px 'Arial'; text-anchor: end" x="55.12" y="73.348326" transform="rotate(-0, 55.12, 73.348326)">0.9</text>
     </g>
    </g>
    <g id="ytick_8">
     <g id="line2d_23"/>
     <g id="line2d_24">
      <g>
       <use xlink:href="#mad00be41fe" x="62.12" y="23.434912" style="stroke: #000000; stroke-width: 0.8"/>
      </g>
     </g>
     <g id="text_13">
      <text style="font: 14px 'Arial'; text-anchor: end" x="55.12" y="28.753818" transform="rotate(-0, 55.12, 28.753818)">1.0</text>
     </g>
    </g>
    <g id="text_14">
     <text style="font: 14px 'Arial'; text-anchor: middle" x="25.944063" y="196.82" transform="rotate(-90, 25.944063, 196.82)">R²</text>
    </g>
   </g>
   <g id="LineCollection_1">
    <path d="M 79.326198 272.393485 
L 79.326198 242.545051 
" clip-path="url(#p180fba8582)" style="fill: none; stroke: #8aafc9; stroke-width: 2"/>
    <path d="M 199.592364 132.667527 
L 199.592364 115.723094 
" clip-path="url(#p180fba8582)" style="fill: none; stroke: #8aafc9; stroke-width: 2"/>
    <path d="M 303.184 58.778399 
L 303.184 51.691814 
" clip-path="url(#p180fba8582)" style="fill: none; stroke: #8aafc9; stroke-width: 2"/>
    <path d="M 423.450165 35.491224 
L 423.450165 31.638182 
" clip-path="url(#p180fba8582)" style="fill: none; stroke: #8aafc9; stroke-width: 2"/>
   </g>
   <g id="line2d_25">
    <defs>
     <path id="m51a834d410" d="M 4 0 
L -4 -0 
" style="stroke: #8aafc9"/>
    </defs>
    <g clip-path="url(#p180fba8582)">
     <use xlink:href="#m51a834d410" x="79.326198" y="272.393485" style="fill: #8aafc9; stroke: #8aafc9"/>
     <use xlink:href="#m51a834d410" x="199.592364" y="132.667527" style="fill: #8aafc9; stroke: #8aafc9"/>
     <use xlink:href="#m51a834d410" x="303.184" y="58.778399" style="fill: #8aafc9; stroke: #8aafc9"/>
     <use xlink:href="#m51a834d410" x="423.450165" y="35.491224" style="fill: #8aafc9; stroke: #8aafc9"/>
    </g>
   </g>
   <g id="line2d_26">
    <g clip-path="url(#p180fba8582)">
     <use xlink:href="#m51a834d410" x="79.326198" y="242.545051" style="fill: #8aafc9; stroke: #8aafc9"/>
     <use xlink:href="#m51a834d410" x="199.592364" y="115.723094" style="fill: #8aafc9; stroke: #8aafc9"/>
     <use xlink:href="#m51a834d410" x="303.184" y="51.691814" style="fill: #8aafc9; stroke: #8aafc9"/>
     <use xlink:href="#m51a834d410" x="423.450165" y="31.638182" style="fill: #8aafc9; stroke: #8aafc9"/>
    </g>
   </g>
   <g id="LineCollection_2">
    <path d="M 79.326198 362.001818 
L 79.326198 313.042298 
" clip-path="url(#p180fba8582)" style="fill: none; stroke: #ea8e83; stroke-width: 2"/>
    <path d="M 199.592364 227.007176 
L 199.592364 134.76409 
" clip-path="url(#p180fba8582)" style="fill: none; stroke: #ea8e83; stroke-width: 2"/>
    <path d="M 303.184 74.962903 
L 303.184 53.821235 
" clip-path="url(#p180fba8582)" style="fill: none; stroke: #ea8e83; stroke-width: 2"/>
    <path d="M 423.450165 32.321107 
L 423.450165 32.20948 
" clip-path="url(#p180fba8582)" style="fill: none; stroke: #ea8e83; stroke-width: 2"/>
   </g>
   <g id="line2d_27">
    <defs>
     <path id="m20d3becab4" d="M 4 0 
L -4 -0 
" style="stroke: #ea8e83"/>
    </defs>
    <g clip-path="url(#p180fba8582)">
     <use xlink:href="#m20d3becab4" x="79.326198" y="362.001818" style="fill: #ea8e83; stroke: #ea8e83"/>
     <use xlink:href="#m20d3becab4" x="199.592364" y="227.007176" style="fill: #ea8e83; stroke: #ea8e83"/>
     <use xlink:href="#m20d3becab4" x="303.184" y="74.962903" style="fill: #ea8e83; stroke: #ea8e83"/>
     <use xlink:href="#m20d3becab4" x="423.450165" y="32.321107" style="fill: #ea8e83; stroke: #ea8e83"/>
    </g>
   </g>
   <g id="line2d_28">
    <g clip-path="url(#p180fba8582)">
     <use xlink:href="#m20d3becab4" x="79.326198" y="313.042298" style="fill: #ea8e83; stroke: #ea8e83"/>
     <use xlink:href="#m20d3becab4" x="199.592364" y="134.76409" style="fill: #ea8e83; stroke: #ea8e83"/>
     <use xlink:href="#m20d3becab4" x="303.184" y="53.821235" style="fill: #ea8e83; stroke: #ea8e83"/>
     <use xlink:href="#m20d3becab4" x="423.450165" y="32.20948" style="fill: #ea8e83; stroke: #ea8e83"/>
    </g>
   </g>
   <g id="line2d_29">
    <path d="M 79.326198 257.469268 
L 199.592364 124.195311 
L 303.184 55.235107 
L 423.450165 33.564703 
" clip-path="url(#p180fba8582)" style="fill: none; stroke: #8aafc9; stroke-width: 2; stroke-linecap: square"/>
    <defs>
     <path id="m4ef886b690" d="M 0 4 
C 1.060812 4 2.078319 3.578535 2.828427 2.828427 
C 3.578535 2.078319 4 1.060812 4 0 
C 4 -1.060812 3.578535 -2.078319 2.828427 -2.828427 
C 2.078319 -3.578535 1.060812 -4 0 -4 
C -1.060812 -4 -2.078319 -3.578535 -2.828427 -2.828427 
C -3.578535 -2.078319 -4 -1.060812 -4 0 
C -4 1.060812 -3.578535 2.078319 -2.828427 2.828427 
C -2.078319 3.578535 -1.060812 4 0 4 
z
" style="stroke: #8aafc9"/>
    </defs>
    <g clip-path="url(#p180fba8582)">
     <use xlink:href="#m4ef886b690" x="79.326198" y="257.469268" style="fill: #8aafc9; stroke: #8aafc9"/>
     <use xlink:href="#m4ef886b690" x="199.592364" y="124.195311" style="fill: #8aafc9; stroke: #8aafc9"/>
     <use xlink:href="#m4ef886b690" x="303.184" y="55.235107" style="fill: #8aafc9; stroke: #8aafc9"/>
     <use xlink:href="#m4ef886b690" x="423.450165" y="33.564703" style="fill: #8aafc9; stroke: #8aafc9"/>
    </g>
   </g>
   <g id="line2d_30">
    <path d="M 79.326198 337.522058 
L 199.592364 180.885633 
L 303.184 64.392069 
L 423.450165 32.265293 
" clip-path="url(#p180fba8582)" style="fill: none; stroke: #ea8e83; stroke-width: 2; stroke-linecap: square"/>
    <defs>
     <path id="mc2a53b0f77" d="M 0 4 
C 1.060812 4 2.078319 3.578535 2.828427 2.828427 
C 3.578535 2.078319 4 1.060812 4 0 
C 4 -1.060812 3.578535 -2.078319 2.828427 -2.828427 
C 2.078319 -3.578535 1.060812 -4 0 -4 
C -1.060812 -4 -2.078319 -3.578535 -2.828427 -2.828427 
C -3.578535 -2.078319 -4 -1.060812 -4 0 
C -4 1.060812 -3.578535 2.078319 -2.828427 2.828427 
C -2.078319 3.578535 -1.060812 4 0 4 
z
" style="stroke: #ea8e83"/>
    </defs>
    <g clip-path="url(#p180fba8582)">
     <use xlink:href="#mc2a53b0f77" x="79.326198" y="337.522058" style="fill: #ea8e83; stroke: #ea8e83"/>
     <use xlink:href="#mc2a53b0f77" x="199.592364" y="180.885633" style="fill: #ea8e83; stroke: #ea8e83"/>
     <use xlink:href="#mc2a53b0f77" x="303.184" y="64.392069" style="fill: #ea8e83; stroke: #ea8e83"/>
     <use xlink:href="#mc2a53b0f77" x="423.450165" y="32.265293" style="fill: #ea8e83; stroke: #ea8e83"/>
    </g>
   </g>
   <g id="patch_3">
    <path d="M 62.12 378.52 
L 62.12 15.12 
" style="fill: none; stroke: #000000; stroke-linejoin: miter; stroke-linecap: square"/>
   </g>
   <g id="patch_4">
    <path d="M 440.656364 378.52 
L 440.656364 15.12 
" style="fill: none; stroke: #000000; stroke-linejoin: miter; stroke-linecap: square"/>
   </g>
   <g id="patch_5">
    <path d="M 62.12 378.52 
L 440.656364 378.52 
" style="fill: none; stroke: #000000; stroke-linejoin: miter; stroke-linecap: square"/>
   </g>
   <g id="patch_6">
    <path d="M 62.12 15.12 
L 440.656364 15.12 
" style="fill: none; stroke: #000000; stroke-linejoin: miter; stroke-linecap: square"/>
   </g>
   <g id="legend_1">
    <g id="line2d_31">
     <g>
      <use xlink:href="#m4ef886b690" x="229.932301" y="337.559063" style="fill: #8aafc9; stroke: #8aafc9"/>
     </g>
    </g>
    <g id="text_15">
     <text style="font: 14px 'Arial'; text-anchor: start" x="255.132301" y="342.459063" transform="rotate(-0, 255.132301, 342.459063)">Finetuned Model</text>
    </g>
    <g id="line2d_32">
     <g>
      <use xlink:href="#mc2a53b0f77" x="229.932301" y="358.108438" style="fill: #ea8e83; stroke: #ea8e83"/>
     </g>
    </g>
    <g id="text_16">
     <text style="font: 14px 'Arial'; text-anchor: start" x="255.132301" y="363.008438" transform="rotate(-0, 255.132301, 363.008438)">Train from scratch Model</text>
    </g>
   </g>
  </g>
 </g>
 <defs>
  <clipPath id="p180fba8582">
   <rect x="62.12" y="15.12" width="378.536364" height="363.4"/>
  </clipPath>
 </defs>
</svg>
