<?xml version="1.0" encoding="utf-8" standalone="no"?>
<!DOCTYPE svg PUBLIC "-//W3C//DTD SVG 1.1//EN"
  "http://www.w3.org/Graphics/SVG/1.1/DTD/svg11.dtd">
<svg xmlns:xlink="http://www.w3.org/1999/xlink" width="576pt" height="360pt" viewBox="0 0 576 360" xmlns="http://www.w3.org/2000/svg" version="1.1">
 <metadata>
  <rdf:RDF xmlns:dc="http://purl.org/dc/elements/1.1/" xmlns:cc="http://creativecommons.org/ns#" xmlns:rdf="http://www.w3.org/1999/02/22-rdf-syntax-ns#">
   <cc:Work>
    <dc:type rdf:resource="http://purl.org/dc/dcmitype/StillImage"/>
    <dc:date>2025-08-16T23:31:01.169659</dc:date>
    <dc:format>image/svg+xml</dc:format>
    <dc:creator>
     <cc:Agent>
      <dc:title>Matplotlib v3.5.3, https://matplotlib.org/</dc:title>
     </cc:Agent>
    </dc:creator>
   </cc:Work>
  </rdf:RDF>
 </metadata>
 <defs>
  <style type="text/css">*{stroke-linejoin: round; stroke-linecap: butt}</style>
 </defs>
 <g id="figure_1">
  <g id="patch_1">
   <path d="M 0 360 
L 576 360 
L 576 0 
L 0 0 
z
" style="fill: #ffffff"/>
  </g>
  <g id="axes_1">
   <g id="patch_2">
    <path d="M 72 320.4 
L 518.4 320.4 
L 518.4 43.2 
L 72 43.2 
z
" style="fill: #ffffff"/>
   </g>
   <g id="matplotlib.axis_1">
    <g id="xtick_1">
     <g id="line2d_1">
      <defs>
       <path id="m966cd525eb" d="M 0 0 
L 0 6 
" style="stroke: #000000; stroke-width: 1.25"/>
      </defs>
      <g>
       <use xlink:href="#m966cd525eb" x="72" y="320.4" style="stroke: #000000; stroke-width: 1.25"/>
      </g>
     </g>
     <g id="text_1">
      <text style="font: 14px 'sans-serif'; text-anchor: middle" x="72" y="340.537813" transform="rotate(-0, 72, 340.537813)">0</text>
     </g>
    </g>
    <g id="xtick_2">
     <g id="line2d_2">
      <g>
       <use xlink:href="#m966cd525eb" x="134" y="320.4" style="stroke: #000000; stroke-width: 1.25"/>
      </g>
     </g>
     <g id="text_2">
      <text style="font: 14px 'sans-serif'; text-anchor: middle" x="134" y="340.537813" transform="rotate(-0, 134, 340.537813)">50</text>
     </g>
    </g>
    <g id="xtick_3">
     <g id="line2d_3">
      <g>
       <use xlink:href="#m966cd525eb" x="196" y="320.4" style="stroke: #000000; stroke-width: 1.25"/>
      </g>
     </g>
     <g id="text_3">
      <text style="font: 14px 'sans-serif'; text-anchor: middle" x="196" y="340.537813" transform="rotate(-0, 196, 340.537813)">100</text>
     </g>
    </g>
    <g id="xtick_4">
     <g id="line2d_4">
      <g>
       <use xlink:href="#m966cd525eb" x="258" y="320.4" style="stroke: #000000; stroke-width: 1.25"/>
      </g>
     </g>
     <g id="text_4">
      <text style="font: 14px 'sans-serif'; text-anchor: middle" x="258" y="340.537813" transform="rotate(-0, 258, 340.537813)">150</text>
     </g>
    </g>
    <g id="xtick_5">
     <g id="line2d_5">
      <g>
       <use xlink:href="#m966cd525eb" x="320" y="320.4" style="stroke: #000000; stroke-width: 1.25"/>
      </g>
     </g>
     <g id="text_5">
      <text style="font: 14px 'sans-serif'; text-anchor: middle" x="320" y="340.537813" transform="rotate(-0, 320, 340.537813)">200</text>
     </g>
    </g>
    <g id="xtick_6">
     <g id="line2d_6">
      <g>
       <use xlink:href="#m966cd525eb" x="382" y="320.4" style="stroke: #000000; stroke-width: 1.25"/>
      </g>
     </g>
     <g id="text_6">
      <text style="font: 14px 'sans-serif'; text-anchor: middle" x="382" y="340.537813" transform="rotate(-0, 382, 340.537813)">250</text>
     </g>
    </g>
    <g id="xtick_7">
     <g id="line2d_7">
      <g>
       <use xlink:href="#m966cd525eb" x="444" y="320.4" style="stroke: #000000; stroke-width: 1.25"/>
      </g>
     </g>
     <g id="text_7">
      <text style="font: 14px 'sans-serif'; text-anchor: middle" x="444" y="340.537813" transform="rotate(-0, 444, 340.537813)">300</text>
     </g>
    </g>
    <g id="xtick_8">
     <g id="line2d_8">
      <g>
       <use xlink:href="#m966cd525eb" x="506" y="320.4" style="stroke: #000000; stroke-width: 1.25"/>
      </g>
     </g>
     <g id="text_8">
      <text style="font: 14px 'sans-serif'; text-anchor: middle" x="506" y="340.537813" transform="rotate(-0, 506, 340.537813)">350</text>
     </g>
    </g>
    <g id="text_9">
     <text style="font: 18px 'sans-serif'; text-anchor: middle" x="295.2" y="361.126562" transform="rotate(-0, 295.2, 361.126562)">Angle (degrees)</text>
    </g>
   </g>
   <g id="matplotlib.axis_2"/>
   <g id="line2d_9">
    <path d="M 75.1 209.300295 
L 76.572241 142.70941 
L 78.044482 101.234561 
L 79.516722 81.204094 
L 80.988963 78.946356 
L 82.461204 90.789691 
L 83.933445 113.062446 
L 85.405686 142.092967 
L 88.350167 205.810705 
L 89.822408 234.441867 
L 91.294649 258.585643 
L 92.76689 276.752023 
L 94.23913 287.485517 
L 95.711371 290.985181 
L 97.183612 289.799978 
L 98.655853 286.657857 
L 100.128094 284.284047 
L 101.600334 284.289296 
L 103.072575 285.459404 
L 104.544816 286.139311 
L 106.017057 284.673957 
L 107.489298 279.822628 
L 108.961538 272.307779 
L 111.90602 254.500792 
L 113.378261 246.779607 
L 114.850502 241.205971 
L 116.322742 238.537996 
L 117.794983 239.532049 
L 119.267224 244.865259 
L 120.739465 253.561136 
L 122.211706 263.078254 
L 123.683946 270.813701 
L 125.156187 274.178281 
L 126.628428 271.563803 
L 128.100669 262.981379 
L 129.57291 248.593626 
L 131.045151 228.56414 
L 133.989632 181.628188 
L 135.461873 166.511072 
L 136.934114 165.317567 
L 138.406355 182.55643 
L 139.878595 212.84896 
L 141.350836 247.363435 
L 142.823077 277.264534 
L 144.295318 294.424848 
L 145.767559 298.672234 
L 147.239799 294.839693 
L 148.71204 287.838111 
L 150.184281 282.474174 
L 151.656522 280.709884 
L 153.128763 281.388783 
L 154.601003 283.19531 
L 156.073244 284.818435 
L 157.545485 285.476229 
L 159.017726 285.404482 
L 161.962207 284.477756 
L 163.434448 284.242236 
L 164.906689 284.222742 
L 170.795652 284.608304 
L 173.740134 284.528191 
L 178.156856 284.292343 
L 179.629097 284.369724 
L 184.045819 285.186985 
L 185.51806 285.039721 
L 186.990301 284.287196 
L 188.462542 283.011328 
L 189.934783 282.012792 
L 191.407023 282.190398 
L 192.879264 284.442957 
L 195.823746 293.213985 
L 197.295987 293.759804 
L 198.768227 287.271037 
L 200.240468 271.087157 
L 203.18495 223.999277 
L 204.657191 204.32177 
L 206.129431 194.442862 
L 207.601672 194.937139 
L 209.073913 202.334798 
L 212.018395 223.470372 
L 213.490635 231.155139 
L 214.962876 235.238511 
L 216.435117 234.996828 
L 217.907358 229.707379 
L 219.379599 219.148054 
L 220.851839 204.417952 
L 222.32408 186.831602 
L 225.268562 148.720549 
L 226.740803 133.409944 
L 228.213043 125.866786 
L 229.685284 130.186305 
L 231.157525 149.757377 
L 232.629766 181.125075 
L 234.102007 216.992174 
L 235.574247 250.018851 
L 237.046488 273.104914 
L 238.518729 284.483626 
L 239.99097 287.624623 
L 241.463211 286.217751 
L 242.935452 283.934716 
L 244.407692 282.994774 
L 245.879933 283.126919 
L 248.824415 284.544295 
L 250.296656 284.928558 
L 251.768896 284.988792 
L 253.241137 284.824323 
L 257.65786 283.99697 
L 259.1301 283.981755 
L 260.602341 284.293568 
L 263.546823 285.842958 
L 265.019064 286.20117 
L 266.491304 285.518761 
L 267.963545 283.264327 
L 269.435786 280.137129 
L 270.908027 278.2361 
L 272.380268 279.736089 
L 273.852508 286.788377 
L 275.324749 298.369647 
L 276.79699 307.109164 
L 278.269231 304.880875 
L 279.741472 283.558819 
L 281.213712 239.48168 
L 282.685953 185.4008 
L 284.158194 137.838042 
L 285.630435 113.315271 
L 287.102676 125.350553 
L 288.574916 166.428341 
L 291.519398 269.657308 
L 292.991639 299.647028 
L 294.46388 307.8 
L 295.93612 302.074453 
L 297.408361 290.68162 
L 298.880602 281.723254 
L 300.352843 278.899984 
L 301.825084 280.109795 
L 303.297324 282.854155 
L 304.769565 284.638917 
L 306.241806 284.134086 
L 307.714047 282.733554 
L 309.186288 282.220209 
L 310.658528 284.376937 
L 313.60301 295.634014 
L 315.075251 296.630529 
L 316.547492 288.361678 
L 318.019732 267.192804 
L 320.964214 209.371939 
L 322.436455 190.653736 
L 323.908696 190.118779 
L 325.380936 205.3161 
L 326.853177 224.259079 
L 328.325418 234.636172 
L 329.797659 224.296511 
L 331.2699 190.411891 
L 334.214381 98.982362 
L 335.686622 66.728419 
L 337.158863 55.8 
L 338.631104 61.95254 
L 340.103344 78.832594 
L 343.047826 120.371743 
L 345.992308 159.188352 
L 347.464548 180.812088 
L 351.881271 257.180761 
L 353.353512 277.238703 
L 354.825753 289.251805 
L 356.297993 293.025479 
L 357.770234 291.385152 
L 359.242475 287.291942 
L 360.714716 283.692978 
L 362.186957 282.273825 
L 363.659197 282.472974 
L 366.603679 284.552524 
L 368.07592 285.051598 
L 369.548161 285.072134 
L 373.964883 284.360004 
L 376.909365 284.387603 
L 381.326087 284.537932 
L 400.465217 284.492391 
L 424.02107 284.421327 
L 426.965552 284.376827 
L 428.437793 284.486247 
L 431.382274 284.927014 
L 432.854515 284.961904 
L 434.326756 284.648645 
L 437.271237 283.011577 
L 438.743478 282.687259 
L 440.215719 283.529501 
L 441.68796 286.068633 
L 443.160201 288.913564 
L 444.632441 288.920474 
L 446.104682 282.881343 
L 447.576923 267.646133 
L 449.049164 243.791096 
L 450.521405 217.815109 
L 451.993645 196.744087 
L 453.465886 187.600859 
L 454.938127 194.450547 
L 456.410368 212.889102 
L 459.354849 260.891516 
L 460.82709 279.06691 
L 462.299331 288.381778 
L 463.771572 286.46562 
L 465.243813 270.9485 
L 466.716054 240.244353 
L 468.188294 201.14494 
L 469.660535 165.517506 
L 471.132776 145.300242 
L 472.605017 151.935027 
L 474.077258 184.231084 
L 475.549498 227.649115 
L 477.021739 267.0102 
L 478.49398 287.218418 
L 479.966221 281.667245 
L 481.438462 259.462088 
L 482.910702 231.409808 
L 484.382943 208.316852 
L 485.855184 198.274519 
L 487.327425 200.197243 
L 488.799666 211.062596 
L 490.271906 227.848153 
L 493.216388 266.176749 
L 494.688629 280.152795 
L 496.16087 285.476894 
L 497.63311 278.696054 
L 499.105351 262.160083 
L 500.577592 242.304472 
L 502.049833 225.649964 
L 503.522074 218.562494 
L 504.994314 222.120063 
L 507.938796 239.189431 
L 509.411037 241.118059 
L 510.883278 230.920535 
L 512.355518 202.805273 
L 513.827759 150.980688 
L 515.3 69.655195 
L 515.3 69.655195 
" clip-path="url(#p46078a266c)" style="fill: none; stroke: #1f77b4; stroke-width: 2; stroke-linecap: square"/>
   </g>
   <g id="patch_3">
    <path d="M 72 320.4 
L 72 43.2 
" style="fill: none; stroke: #000000; stroke-width: 1.25; stroke-linejoin: miter; stroke-linecap: square"/>
   </g>
   <g id="patch_4">
    <path d="M 518.4 320.4 
L 518.4 43.2 
" style="fill: none; stroke: #000000; stroke-width: 1.25; stroke-linejoin: miter; stroke-linecap: square"/>
   </g>
   <g id="patch_5">
    <path d="M 72 320.4 
L 518.4 320.4 
" style="fill: none; stroke: #000000; stroke-width: 1.25; stroke-linejoin: miter; stroke-linecap: square"/>
   </g>
   <g id="patch_6">
    <path d="M 72 43.2 
L 518.4 43.2 
" style="fill: none; stroke: #000000; stroke-width: 1.25; stroke-linejoin: miter; stroke-linecap: square"/>
   </g>
   <g id="text_10">
    <text style="font: 18px 'sans-serif'; text-anchor: middle" x="295.2" y="37.2" transform="rotate(-0, 295.2, 37.2)">Normalized angle distribution (0–360°)</text>
   </g>
  </g>
 </g>
 <defs>
  <clipPath id="p46078a266c">
   <rect x="72" y="43.2" width="446.4" height="277.2"/>
  </clipPath>
 </defs>
</svg>
